<?xml version="1.0" standalone="no"?>
<!DOCTYPE svg PUBLIC "-//W3C//DTD SVG 20010904//EN"
 "http://www.w3.org/TR/2001/REC-SVG-20010904/DTD/svg10.dtd">
<svg version="1.0" xmlns="http://www.w3.org/2000/svg"
 width="481.000000pt" height="481.000000pt" viewBox="0 0 481.000000 481.000000"
 preserveAspectRatio="xMidYMid meet">
<metadata>
Created by potrace 1.14, written by Peter Selinger 2001-2017
</metadata>
<g transform="translate(0.000000,481.000000) scale(0.100000,-0.100000)"
fill="#000000" stroke="none">
<path d="M2242 4786 c-11 -19 -9 -117 3 -112 13 5 14 -33 1 -53 -7 -10 -6 -12
4 -6 10 6 12 4 7 -8 -3 -10 -3 -17 2 -17 9 0 8 -37 -2 -46 -4 -4 -7 -12 -7
-18 0 -6 5 -4 10 4 7 11 10 8 10 -15 0 -17 -6 -37 -12 -44 -8 -8 -8 -11 -2 -8
15 8 24 -26 13 -44 -6 -10 -1 -20 14 -32 13 -10 16 -15 6 -11 -10 3 -20 0 -25
-7 -4 -7 -3 -10 4 -5 6 3 14 1 18 -5 3 -6 0 -15 -7 -20 -12 -7 -12 -10 0 -21
11 -11 13 -11 6 1 -5 10 -4 12 4 7 7 -5 8 -13 3 -23 -5 -8 -6 -33 -2 -54 4
-22 3 -39 -2 -39 -5 0 -6 -5 -3 -10 4 -6 12 -8 18 -4 7 3 4 -1 -5 -9 -18 -15
-14 -62 5 -50 6 3 7 1 3 -5 -4 -7 -15 -12 -24 -13 -11 0 -12 -3 -4 -6 6 -2 12
-14 12 -24 0 -14 -4 -18 -12 -13 -10 6 -10 4 0 -8 10 -13 10 -17 0 -21 -10 -4
-9 -6 1 -6 11 -1 10 -4 -3 -14 -16 -12 -16 -15 -4 -28 13 -13 13 -16 0 -29
-14 -13 -15 -12 -8 5 5 15 4 17 -4 9 -9 -9 -9 -17 0 -35 11 -20 10 -25 -16
-47 -16 -13 -23 -21 -16 -18 16 9 15 -2 -2 -19 -7 -8 -17 -11 -22 -7 -5 4 -2
-1 5 -10 12 -15 11 -18 -3 -18 -9 0 -15 -5 -13 -12 1 -7 -4 -13 -10 -14 -7 -1
-16 -2 -19 -3 -4 0 0 -9 7 -18 8 -10 9 -14 2 -10 -6 4 -15 2 -18 -4 -4 -5 -14
-8 -22 -4 -13 4 -14 3 -4 -9 11 -13 9 -15 -8 -11 -14 3 -18 0 -14 -11 3 -8 2
-14 -3 -13 -23 4 -45 -2 -39 -11 3 -5 2 -10 -4 -10 -5 0 -12 6 -14 13 -4 9 -6
9 -6 0 -1 -7 -8 -10 -18 -6 -12 5 -14 3 -8 -8 7 -11 5 -11 -10 1 -17 14 -18
13 -12 -4 6 -16 5 -17 -8 -6 -9 7 -18 10 -22 6 -3 -3 -15 2 -26 11 -11 10 -17
12 -13 6 4 -7 2 -13 -3 -13 -6 0 -11 4 -11 9 0 5 -9 11 -21 14 -16 4 -19 2
-15 -10 6 -14 4 -14 -11 -2 -10 7 -15 9 -11 5 4 -5 2 -16 -5 -24 -10 -13 -9
-15 3 -8 9 5 8 2 -2 -7 -12 -9 -14 -17 -7 -24 6 -6 3 -18 -11 -34 l-21 -24 15
26 c13 21 14 26 2 26 -8 0 -12 -6 -9 -13 2 -6 0 -15 -6 -19 -8 -4 -8 -12 -1
-25 7 -13 7 -21 -2 -26 -7 -5 -8 -3 -3 6 5 9 4 11 -4 6 -9 -6 -9 -11 1 -24 7
-9 8 -13 3 -10 -6 4 -17 -2 -24 -14 -10 -16 -10 -19 1 -13 7 3 2 -4 -12 -16
-16 -14 -19 -20 -8 -16 10 3 20 1 24 -5 4 -6 3 -8 -3 -5 -14 9 -37 -19 -28
-33 3 -5 -2 -10 -12 -11 -10 0 -13 -3 -5 -6 6 -2 12 -9 12 -14 0 -6 -4 -7 -10
-4 -6 4 -10 -5 -10 -19 0 -14 -4 -26 -10 -26 -5 0 -10 -7 -10 -15 0 -8 -6 -15
-12 -15 -9 0 -8 -4 2 -10 13 -9 8 -14 -11 -12 -4 1 -4 -8 -1 -20 4 -16 2 -19
-9 -13 -11 7 -11 5 1 -10 14 -17 13 -18 -4 -12 -17 7 -17 6 -5 -10 8 -9 9 -14
2 -10 -7 5 -14 -1 -19 -15 -4 -13 -2 -24 4 -26 8 -2 8 -7 -1 -17 -7 -7 -15
-11 -19 -8 -8 4 -10 -5 -11 -44 0 -13 -4 -20 -10 -16 -7 4 -8 0 -4 -11 5 -13
3 -17 -7 -13 -10 4 -13 1 -9 -8 3 -8 10 -12 17 -9 6 3 3 -1 -6 -9 -10 -8 -15
-17 -11 -20 3 -4 1 -7 -7 -7 -10 0 -10 -3 -1 -14 10 -11 8 -17 -6 -25 -10 -6
-13 -11 -5 -11 9 0 10 -5 3 -19 -6 -10 -7 -22 -3 -26 4 -5 1 -4 -7 0 -11 6
-13 4 -8 -8 4 -12 1 -17 -11 -18 -13 0 -11 -3 6 -9 26 -11 30 -23 5 -13 -16 6
-17 5 -3 -12 9 -11 10 -16 3 -11 -8 4 -13 2 -13 -4 0 -6 -4 -8 -10 -5 -6 3 -7
-1 -4 -9 3 -9 9 -14 13 -12 4 3 7 -4 7 -14 0 -10 -4 -17 -7 -14 -4 2 -10 0
-14 -6 -3 -5 -1 -10 6 -10 8 0 8 -4 2 -12 -6 -7 -9 -22 -7 -32 1 -11 -5 -26
-14 -34 -15 -12 -15 -13 -1 -9 13 4 16 -1 15 -19 0 -14 -7 -24 -15 -24 -11 0
-10 -3 3 -13 17 -13 17 -14 1 -30 -9 -9 -12 -17 -6 -17 6 0 11 -7 11 -16 0 -8
-3 -13 -8 -10 -4 2 -7 -20 -7 -49 0 -34 3 -51 10 -47 5 3 4 -1 -2 -9 -10 -12
-10 -18 0 -28 9 -10 8 -11 -8 -5 -18 7 -19 6 -6 -9 12 -15 12 -20 -5 -33 -10
-9 -13 -13 -6 -9 10 5 12 -4 9 -39 -2 -26 -8 -50 -12 -54 -5 -4 -5 -1 -1 6 4
6 2 12 -3 12 -6 0 -11 -7 -11 -16 0 -8 -5 -12 -10 -9 -6 4 -10 3 -9 -2 3 -20
-2 -34 -11 -28 -6 4 -7 -1 -3 -11 5 -13 3 -15 -7 -9 -10 6 -12 4 -7 -9 4 -9 3
-15 -2 -11 -5 3 -16 -1 -24 -9 -11 -11 -17 -12 -26 -3 -7 7 -11 8 -11 0 0 -6
-18 -10 -47 -8 -27 1 -53 -1 -59 -6 -7 -6 -20 -1 -34 11 -13 11 -31 20 -42 20
-10 0 -18 5 -18 10 0 6 -7 10 -16 10 -8 0 -12 5 -9 10 3 6 -1 10 -10 10 -9 0
-13 5 -10 10 3 6 -1 10 -10 10 -9 0 -14 4 -11 8 3 5 -4 15 -15 22 -10 8 -19
25 -19 38 0 13 -4 21 -9 18 -5 -3 -8 6 -8 20 0 15 -6 30 -13 34 -9 6 -9 9 1
13 9 3 7 6 -6 6 -17 1 -17 3 -5 11 9 6 11 10 3 10 -7 0 -10 7 -6 17 5 12 3 14
-8 8 -11 -6 -12 -5 -2 6 15 15 17 33 4 25 -15 -10 -20 22 -5 34 16 15 19 30 3
30 -5 0 -7 -5 -3 -12 4 -7 3 -8 -5 -4 -6 4 -9 12 -5 17 3 5 0 17 -8 26 -7 9
-8 14 -1 10 7 -4 15 5 22 23 6 18 6 28 1 25 -13 -8 -8 38 5 47 6 4 1 8 -10 8
-18 1 -19 1 -2 11 9 5 17 15 17 21 0 7 -5 6 -15 -2 -12 -10 -13 -7 -6 18 9 28
7 30 -17 27 -14 -1 -31 -10 -37 -19 -14 -18 -30 -22 -19 -4 4 7 3 8 -5 4 -9
-6 -9 -11 0 -22 10 -12 10 -15 -2 -12 -8 2 -13 -4 -13 -14 1 -10 -1 -17 -5
-16 -20 2 -30 -6 -46 -36 -11 -19 -22 -33 -25 -31 -3 2 -6 -5 -6 -16 0 -19 1
-19 13 -3 7 10 13 13 13 8 0 -13 -47 -54 -53 -47 -3 3 -3 -4 0 -16 3 -13 1
-21 -6 -21 -7 0 -9 5 -5 12 4 7 3 8 -5 4 -9 -6 -9 -11 0 -22 11 -14 2 -19 -24
-15 -5 1 -6 -3 -2 -9 3 -6 12 -8 18 -4 7 3 1 -4 -13 -15 -14 -11 -19 -21 -12
-21 10 0 10 -3 0 -14 -7 -8 -16 -12 -19 -10 -3 2 -6 -9 -5 -24 0 -16 -4 -26
-12 -24 -16 3 -16 -15 1 -21 6 -3 1 -6 -13 -6 -14 -1 -20 -5 -15 -9 6 -4 11
-15 11 -25 2 -14 -1 -15 -11 -7 -11 9 -12 7 -8 -9 3 -14 -1 -23 -12 -27 -13
-5 -14 -9 -3 -15 10 -6 8 -9 -7 -9 -14 0 -16 -3 -7 -8 9 -7 8 -13 -7 -26 -16
-14 -18 -23 -10 -37 7 -13 6 -19 -2 -19 -6 0 -9 -7 -5 -15 3 -10 -1 -15 -12
-16 -11 0 -12 -2 -4 -6 10 -4 10 -8 0 -21 -10 -12 -10 -14 -1 -8 9 5 11 2 7
-8 -3 -9 -11 -13 -18 -9 -6 4 -5 -1 3 -10 11 -13 11 -17 1 -17 -8 0 -10 -3 -7
-7 4 -3 2 -12 -4 -20 -6 -7 -7 -13 -2 -13 5 0 9 -10 10 -21 2 -18 0 -19 -10
-8 -7 8 -11 12 -10 10 2 -2 -3 -11 -10 -19 -8 -10 -8 -13 -1 -9 7 4 15 0 18
-9 3 -8 2 -13 -2 -10 -4 3 -13 -4 -20 -14 -10 -16 -9 -18 3 -14 11 5 13 2 9
-10 -3 -9 -11 -13 -16 -10 -6 4 -5 -4 2 -16 10 -19 10 -22 -1 -18 -10 4 -14
-3 -14 -24 -1 -21 3 -27 14 -23 10 4 9 -1 -4 -15 -15 -17 -16 -23 -6 -29 11
-7 11 -10 0 -14 -11 -4 -10 -6 2 -6 9 -1 16 -7 16 -15 0 -8 -6 -12 -14 -9 -7
3 -13 0 -13 -6 0 -6 5 -11 10 -11 6 0 10 -5 10 -11 0 -5 -4 -8 -8 -5 -5 3 -9
-2 -9 -10 0 -8 6 -13 12 -10 6 2 12 -2 12 -10 0 -8 -6 -13 -13 -10 -13 5 -13
-19 1 -31 4 -4 5 -2 0 6 -5 9 -4 12 2 8 5 -3 8 -21 6 -39 -3 -25 -2 -29 6 -18
6 8 11 10 11 4 0 -5 -5 -15 -12 -22 -9 -9 -9 -12 1 -12 8 0 12 -11 10 -33 -2
-18 0 -38 5 -45 4 -6 4 -18 0 -24 -5 -8 0 -7 11 2 14 11 17 11 11 1 -5 -8 -3
-17 5 -22 10 -6 11 -9 2 -9 -7 0 -13 -5 -13 -11 0 -5 4 -8 9 -5 5 3 12 -1 15
-10 3 -8 2 -12 -4 -9 -6 3 -10 1 -10 -4 0 -6 4 -11 10 -11 5 0 15 -10 21 -22
10 -20 10 -22 -2 -13 -8 6 -7 3 2 -6 13 -12 15 -19 6 -28 -8 -8 -7 -11 5 -11
11 0 15 -6 11 -20 -3 -12 0 -20 6 -20 7 0 9 5 6 10 -10 16 1 11 16 -7 8 -10 9
-14 2 -10 -8 5 -11 0 -10 -13 1 -12 7 -18 14 -16 8 3 10 -1 6 -11 -5 -12 -2
-15 9 -11 11 5 14 0 10 -19 -4 -20 -1 -24 14 -21 12 2 19 -3 19 -12 0 -8 4
-21 9 -29 7 -10 6 -12 -4 -6 -9 5 -11 4 -6 -3 4 -7 16 -12 27 -12 11 0 17 -5
14 -10 -4 -6 -12 -8 -18 -4 -7 3 -2 -3 10 -14 12 -11 19 -22 16 -26 -4 -3 2
-6 11 -6 12 0 16 -5 12 -16 -4 -10 -2 -13 6 -8 8 5 9 2 5 -9 -3 -9 -1 -19 5
-23 7 -4 8 -3 4 4 -4 7 -2 12 3 12 6 0 11 -7 11 -15 0 -8 5 -15 11 -15 5 0 8
-4 4 -9 -8 -14 24 -42 38 -34 8 5 8 2 0 -9 -15 -17 -7 -29 13 -21 8 3 14 2 13
-3 -1 -5 -1 -16 0 -24 1 -13 2 -13 11 0 8 13 10 12 10 -3 0 -22 24 -49 36 -39
5 4 2 -1 -5 -10 -12 -16 -11 -18 4 -18 11 0 15 -5 11 -16 -3 -8 -2 -13 3 -10
5 3 12 -1 15 -10 3 -8 11 -12 17 -8 8 4 8 1 0 -15 -10 -18 -9 -20 6 -14 13 5
15 3 10 -11 -6 -14 -4 -17 10 -12 10 4 14 4 10 0 -4 -4 -2 -13 5 -21 9 -11 7
-12 -8 -6 -16 6 -17 5 -6 -9 9 -11 10 -18 2 -23 -5 -3 -10 0 -10 7 0 8 -3 9
-8 3 -9 -13 -42 -15 -42 -3 0 6 -6 6 -14 -1 -11 -10 -17 -7 -30 11 -11 15 -16
17 -16 8 0 -9 -3 -11 -8 -5 -13 18 -47 42 -38 27 7 -11 4 -12 -13 -3 -11 7
-21 16 -21 21 0 6 -5 10 -11 10 -5 0 -7 -6 -4 -13 3 -6 -2 -2 -11 11 -9 12
-23 22 -32 22 -8 0 -24 7 -34 17 -11 9 -18 11 -18 5 0 -7 5 -12 12 -12 6 0 9
-2 6 -5 -9 -10 -38 7 -31 18 3 6 1 7 -5 3 -12 -7 -5 -34 14 -53 6 -7 14 -9 18
-6 3 4 6 -3 6 -15 0 -12 5 -22 11 -22 5 0 7 6 3 13 -6 9 -3 8 8 -1 9 -8 14
-20 11 -28 -4 -10 0 -12 11 -8 11 4 16 1 16 -10 0 -9 7 -16 16 -16 8 0 12 -5
9 -10 -3 -6 -1 -10 5 -10 6 0 24 -16 41 -35 17 -19 36 -33 42 -32 7 1 11 -4 9
-12 -2 -9 3 -11 13 -7 9 3 13 2 10 -4 -6 -9 7 -14 27 -11 4 0 5 -5 2 -13 -3
-8 0 -17 7 -22 8 -5 10 -3 4 7 -5 8 5 1 21 -16 16 -16 39 -36 51 -44 12 -8 19
-19 16 -25 -4 -6 1 -5 11 3 14 12 17 12 14 1 -2 -8 7 -19 20 -25 12 -5 22 -13
22 -17 0 -4 6 -5 13 -2 7 2 21 -4 31 -15 10 -11 23 -18 29 -14 6 4 8 -2 5 -15
-5 -19 -3 -20 12 -12 22 12 30 13 29 3 -3 -21 3 -29 23 -30 13 -1 24 -7 26
-13 3 -7 9 -7 20 2 9 7 13 9 11 3 -7 -12 26 -46 35 -38 3 4 6 1 6 -5 0 -7 5
-12 11 -12 5 0 7 6 3 12 -4 7 2 5 13 -5 11 -9 23 -14 27 -10 4 5 6 2 4 -6 -2
-7 3 -16 11 -19 10 -3 11 0 5 9 -7 12 -5 12 9 1 9 -8 22 -10 29 -6 10 6 11 5
1 -8 -17 -19 -4 -32 15 -15 10 8 13 8 9 1 -4 -7 0 -15 9 -18 10 -4 13 -2 9 7
-4 6 0 4 8 -5 10 -13 16 -15 25 -6 9 9 12 8 12 -5 0 -9 3 -17 8 -18 4 0 17 -2
30 -5 17 -3 21 -1 16 8 -5 9 -2 9 9 -1 20 -16 23 -25 5 -15 -10 5 -10 4 -1 -6
10 -11 15 -11 27 0 13 10 17 10 22 -3 3 -8 17 -18 30 -21 15 -4 22 -11 18 -18
-4 -7 -3 -8 5 -4 9 6 9 12 -1 24 -12 16 -11 16 7 1 11 -9 26 -14 33 -12 7 3
12 -3 12 -14 0 -14 2 -15 9 -5 11 18 20 17 38 -5 14 -17 14 -17 9 0 -5 15 -3
16 16 6 37 -20 79 -29 71 -16 -5 9 -2 8 9 0 8 -7 18 -10 21 -6 4 3 7 1 7 -7 0
-8 4 -9 12 -3 20 15 43 9 40 -10 -4 -22 15 -22 21 1 4 15 5 15 6 0 1 -19 67
-23 90 -5 12 9 13 9 7 -1 -10 -16 35 -16 53 0 11 11 13 11 7 0 -11 -19 44 -15
68 5 17 15 18 15 8 2 -12 -15 -6 -17 58 -15 62 1 82 9 63 26 -4 3 -3 0 0 -6 3
-6 0 -11 -7 -11 -8 0 -12 6 -9 14 8 19 37 11 45 -12 5 -18 6 -17 7 5 1 20 3
22 11 10 7 -11 10 -11 10 -2 0 7 5 10 10 7 8 -5 7 -12 -2 -23 -12 -15 -11 -16
4 -3 10 7 15 17 12 22 -3 5 9 10 25 10 49 2 56 4 54 15 -1 6 5 11 12 11 11 0
12 -4 4 -13 -7 -8 -6 -14 2 -20 8 -5 9 -3 4 6 -6 10 -4 12 8 7 9 -3 19 -1 23
5 4 7 3 8 -4 4 -18 -11 -14 0 5 15 10 8 14 9 10 2 -5 -8 0 -11 13 -10 11 1 20
6 20 12 0 5 4 4 9 -4 8 -12 12 -12 25 -2 9 7 25 11 36 8 10 -3 19 -2 18 2 -2
19 4 22 19 10 14 -12 16 -12 8 0 -6 11 -3 13 14 8 17 -4 21 -2 17 8 -3 9 0 12
8 9 8 -3 17 -1 20 4 3 6 15 8 26 5 13 -3 20 0 20 8 0 11 2 11 10 -1 7 -11 10
-11 10 -2 0 7 4 11 9 7 6 -3 15 3 21 12 9 15 10 14 5 -7 -4 -14 -3 -20 2 -15
14 18 61 38 72 31 7 -5 9 -1 5 8 -3 9 -2 16 4 16 6 0 13 -6 15 -12 4 -8 6 -7
6 3 1 20 23 30 41 19 14 -8 52 9 45 20 -2 4 1 7 8 8 39 5 56 10 89 27 20 10
35 22 32 26 -2 4 1 11 7 15 7 4 9 3 5 -4 -3 -6 -2 -13 4 -17 5 -3 10 -1 10 6
0 7 3 9 7 6 3 -4 13 2 21 14 10 15 17 17 27 9 9 -8 17 -4 28 14 11 17 24 23
41 22 14 -2 24 1 23 7 -1 5 13 14 31 19 17 5 32 13 32 17 0 5 14 14 30 20 17
5 30 15 30 20 0 6 5 11 11 11 5 0 7 -6 3 -12 -4 -8 -3 -10 2 -5 5 5 9 14 9 20
0 7 10 12 22 11 19 0 21 2 10 14 -10 13 -9 14 11 3 12 -6 22 -8 21 -4 -3 20 2
34 11 28 6 -3 10 0 10 7 0 11 2 10 9 0 6 -10 10 -8 14 8 4 15 11 21 21 17 9
-4 16 -2 16 4 0 6 6 7 13 3 6 -4 9 -4 5 0 -11 13 15 35 28 25 8 -7 11 -4 10 8
0 10 5 17 12 15 7 -1 15 5 18 13 3 8 9 13 13 10 13 -7 8 29 -5 42 -10 10 -13
10 -17 0 -4 -9 -6 -9 -6 0 -1 7 -8 10 -16 7 -8 -4 -12 -10 -9 -15 3 -5 0 -9
-5 -9 -6 0 -11 4 -11 9 0 5 -11 8 -24 7 -13 0 -22 -5 -19 -9 3 -5 12 -6 20 -3
8 3 11 1 8 -4 -6 -10 -46 -7 -65 5 -5 3 -8 0 -7 -7 2 -7 2 -10 0 -5 -3 4 -9 5
-13 2 -5 -3 -12 0 -16 6 -4 8 -3 9 4 5 7 -4 12 -2 12 3 0 6 -4 11 -9 11 -5 0
-11 7 -15 15 -3 8 0 14 6 12 5 -1 12 6 13 16 2 9 -2 17 -8 17 -5 0 -7 3 -4 6
4 4 14 1 24 -7 9 -8 14 -9 10 -2 -4 6 0 18 8 26 11 12 12 17 2 20 -9 4 -9 6 1
6 7 1 10 5 7 11 -3 5 0 7 9 4 15 -6 40 28 29 40 -3 3 1 6 10 6 10 0 17 5 17
11 0 5 6 7 13 3 7 -5 7 -2 -2 10 -8 9 -10 16 -5 15 21 -4 35 2 29 11 -3 6 5
14 19 20 14 5 26 12 26 15 0 4 -6 3 -12 -1 -10 -6 -10 -5 -1 8 7 8 9 19 5 24
-4 4 1 2 11 -5 15 -12 17 -12 11 4 -5 13 -4 16 4 11 11 -6 16 5 14 26 -1 3 6
12 15 20 14 11 16 11 9 -2 -4 -8 0 -6 8 4 9 11 16 16 16 10 0 -5 5 -1 11 9 5
9 7 22 4 27 -4 6 -1 9 7 8 7 -2 12 3 10 10 -1 8 2 11 8 7 7 -4 14 2 17 14 3
11 9 19 13 16 5 -3 11 4 15 15 4 11 11 18 16 15 5 -3 6 1 3 9 -3 9 -1 16 5 16
6 0 11 9 11 19 0 11 4 23 10 26 6 4 7 -1 4 -12 -6 -15 -4 -15 9 2 11 15 12 22
4 27 -9 6 -8 8 1 8 8 0 10 5 6 13 -5 8 -2 7 9 -2 15 -12 17 -12 11 4 -6 14 -4
16 7 10 11 -7 11 -5 -1 10 -14 17 -13 18 2 12 12 -4 15 -2 11 9 -3 7 0 14 5
14 6 0 9 9 7 21 -3 15 0 19 10 15 10 -3 12 0 8 11 -5 12 -3 14 8 8 11 -7 11
-5 -1 10 -12 15 -12 17 -1 10 11 -6 13 -4 8 9 -6 14 -3 17 10 12 14 -5 15 -4
7 4 -15 15 -6 52 10 43 6 -4 5 1 -3 11 -8 9 -10 16 -5 15 21 -4 28 2 14 11
-12 8 -12 12 -2 18 7 5 12 15 10 23 -2 8 3 13 10 11 8 -1 11 2 7 7 -3 6 -11 9
-18 7 -7 -1 -9 -1 -4 1 4 3 5 9 2 13 -3 5 0 12 6 16 8 4 9 3 5 -4 -4 -7 -2
-12 3 -12 13 0 13 -2 1 38 -8 29 -7 32 6 21 12 -10 13 -9 8 5 -3 9 -11 16 -18
16 -6 0 -3 5 7 11 18 10 18 11 0 32 -10 11 -12 17 -4 12 11 -6 13 -2 7 19 -5
20 -3 26 5 20 8 -5 9 -2 2 11 -6 10 -8 27 -5 37 3 11 -1 24 -9 29 -11 7 -11 9
-1 9 7 0 10 5 7 10 -3 6 -1 10 6 10 7 0 4 7 -7 16 -10 8 -13 13 -6 9 8 -4 12
2 12 17 0 18 -2 20 -10 8 -5 -8 -10 -10 -10 -4 0 5 5 15 12 22 9 9 9 12 0 12
-7 0 -12 5 -12 11 0 5 5 7 11 3 7 -4 10 -1 7 7 -3 8 -11 13 -17 11 -7 -1 -10
2 -6 8 3 6 11 8 16 5 16 -11 10 7 -8 22 -17 14 -17 14 2 9 17 -5 16 -3 -5 14
-20 16 -21 19 -5 13 20 -7 20 -7 1 21 -10 16 -13 25 -7 22 6 -4 11 -2 11 3 0
6 -5 11 -12 11 -9 0 -9 3 -1 11 12 12 6 42 -7 34 -4 -3 -10 2 -13 10 -4 10 -1
12 11 8 14 -6 15 -4 4 9 -7 9 -11 22 -10 29 2 8 -4 13 -12 11 -11 -2 -11 1 3
12 16 13 16 14 -4 19 -11 3 -18 10 -14 16 3 6 3 17 -2 24 -11 17 -13 38 -3 32
5 -3 12 -1 15 5 4 6 3 10 -2 9 -26 -5 -31 2 -23 31 5 19 5 28 -1 25 -5 -4 -9
-1 -9 5 0 6 -4 9 -8 6 -5 -3 -9 1 -9 9 0 8 4 12 9 9 15 -10 8 9 -9 23 -12 10
-13 12 -3 8 8 -4 6 1 -4 9 -11 9 -14 16 -8 16 7 0 12 7 12 15 0 8 -5 15 -11
15 -5 0 -7 -5 -3 -12 4 -7 3 -8 -5 -4 -6 4 -9 11 -6 16 3 5 1 18 -4 29 -8 14
-8 21 2 24 9 4 9 6 -1 6 -7 1 -10 6 -7 11 3 6 0 10 -7 10 -9 0 -9 3 2 10 13 8
12 10 -3 10 -14 0 -17 5 -12 21 5 14 3 19 -3 15 -6 -3 -13 -2 -16 3 -4 5 2 12
11 14 17 4 17 5 1 6 -10 0 -18 6 -18 12 0 5 -5 7 -11 3 -8 -4 -8 -1 -1 13 9
15 7 22 -9 33 -19 15 -28 36 -9 25 6 -3 10 -4 10 0 0 3 -11 10 -25 15 -16 6
-23 14 -19 25 4 8 1 15 -6 15 -7 0 -10 6 -7 13 3 8 1 20 -5 28 -8 11 -8 9 -4
-5 7 -20 7 -20 -16 -1 -13 11 -20 16 -16 11 4 -5 0 -15 -9 -24 -14 -14 -14
-17 3 -23 12 -5 14 -8 5 -8 -8 -1 -11 -4 -8 -8 4 -3 1 -13 -6 -21 -8 -10 -8
-13 -1 -9 7 4 15 0 18 -9 3 -8 2 -13 -3 -10 -5 3 -11 -4 -14 -15 -4 -15 -2
-19 9 -15 12 4 12 2 4 -14 -6 -11 -8 -25 -5 -30 3 -5 0 -12 -6 -16 -8 -5 -9
-3 -4 6 5 9 4 11 -4 6 -9 -6 -9 -11 0 -22 10 -12 10 -15 -2 -12 -8 2 -14 -5
-14 -15 0 -10 -6 -22 -14 -26 -8 -5 -10 -14 -6 -21 6 -9 4 -11 -5 -5 -10 6
-12 4 -6 -10 5 -15 4 -16 -9 -5 -12 10 -15 10 -15 -4 0 -10 -4 -15 -9 -11 -6
3 -14 -2 -19 -11 -5 -9 -13 -17 -18 -17 -5 -1 -8 -6 -6 -10 1 -5 -2 -6 -7 -2
-6 3 -8 13 -5 23 4 10 2 13 -3 7 -4 -5 -19 -16 -32 -23 -21 -12 -23 -12 -18 1
4 12 -2 14 -34 11 -22 -2 -39 0 -39 6 0 6 -7 10 -16 10 -18 0 -44 23 -44 40 0
6 -4 8 -10 5 -9 -6 -11 -1 -14 35 -1 8 -8 15 -17 14 -15 -1 -21 48 -6 62 4 4
7 12 7 18 0 6 -5 4 -11 -4 -8 -11 -9 -8 -4 13 4 20 2 27 -6 22 -8 -6 -8 -2 0
14 9 16 9 21 -1 21 -6 0 -3 6 7 14 16 12 17 16 6 30 -11 13 -11 16 0 16 9 0
10 3 4 8 -16 11 -15 54 1 48 15 -6 7 25 -10 36 -6 4 -1 8 12 8 13 0 20 4 17
10 -4 6 -10 8 -14 6 -3 -3 -7 4 -7 14 0 14 4 16 13 9 9 -8 11 -6 8 10 -2 12
-7 26 -10 31 -3 6 -1 10 4 10 6 0 11 5 11 11 0 5 -5 7 -11 3 -7 -4 -10 -1 -7
7 3 8 10 13 16 12 7 -2 9 4 5 14 -5 12 -3 14 7 8 9 -5 11 -4 6 4 -4 6 -12 9
-17 6 -5 -4 -9 1 -9 9 0 9 8 16 17 16 14 0 13 3 -6 16 l-24 17 24 19 c13 11
19 17 13 14 -18 -9 -25 22 -10 36 12 11 10 15 -8 25 -11 7 -15 12 -8 13 7 0
11 4 7 9 -3 5 0 13 6 17 8 5 9 3 4 -7 -5 -8 -4 -10 0 -6 12 10 15 38 4 31 -5
-3 -9 2 -9 11 0 10 -5 14 -12 10 -7 -4 -2 3 11 14 18 16 20 21 7 21 -9 0 -16
5 -16 11 0 5 6 7 13 3 6 -4 4 1 -5 12 -14 16 -15 23 -5 33 9 11 9 14 -1 18
-10 4 -10 8 -1 19 6 8 7 14 2 14 -5 0 -9 9 -10 20 -1 13 2 18 9 14 7 -4 8 -2
4 4 -4 7 -14 12 -22 12 -8 0 -14 5 -14 11 0 5 4 8 9 4 5 -3 13 0 17 6 4 7 3 9
-4 5 -6 -3 -13 -2 -17 4 -3 5 0 10 7 10 9 1 8 4 -3 10 -10 6 -15 20 -13 37 2
27 2 27 -12 8 -13 -18 -14 -17 -8 13 4 21 3 32 -5 32 -6 0 -10 3 -10 8 3 19
-2 33 -11 27 -5 -3 -7 0 -4 8 3 8 -2 21 -10 30 -9 9 -16 23 -16 31 0 9 -5 16
-11 16 -6 0 -9 6 -6 14 3 7 -7 23 -24 35 -17 13 -28 28 -26 34 5 16 -34 58
-47 50 -6 -4 -4 2 4 12 8 10 10 16 4 12 -7 -4 -14 2 -17 14 -3 11 -15 23 -26
26 -11 3 -19 9 -16 13 3 5 -4 12 -16 15 -15 5 -19 13 -16 27 4 13 2 17 -6 10
-8 -6 -18 -2 -29 10 -18 17 -12 26 8 11 5 -5 -1 2 -13 15 -12 12 -27 22 -33
22 -5 0 -10 7 -10 15 0 8 -9 19 -20 25 -11 6 -18 15 -15 20 3 6 -1 7 -9 4 -11
-4 -16 0 -16 11 0 9 -4 14 -8 11 -5 -3 -14 4 -22 14 -8 10 -17 17 -22 14 -4
-3 -5 2 -2 10 4 12 0 16 -15 16 -13 0 -28 12 -39 29 -17 28 -21 31 -44 31 -9
0 -10 3 -2 8 7 4 1 15 -18 30 -18 15 -28 19 -28 10 0 -7 -9 1 -19 18 -20 32
-51 60 -37 33 4 -8 0 -5 -8 5 -9 11 -16 23 -16 27 0 4 -18 14 -40 23 -22 9
-40 21 -40 27 0 5 -6 7 -12 3 -10 -6 -10 -4 0 8 11 14 10 16 -5 14 -10 -2 -25
5 -34 15 -9 10 -19 16 -23 12 -3 -3 -6 1 -6 9 0 9 -8 22 -17 29 -16 12 -17 12
-8 -1 6 -9 1 -6 -10 7 -12 13 -29 23 -39 23 -10 0 -20 9 -23 20 -5 17 -8 18
-21 8 -12 -10 -14 -10 -8 0 4 7 2 12 -6 12 -10 0 -10 2 1 9 11 7 9 10 -10 13
-17 2 -23 8 -21 23 2 17 1 18 -8 5 -9 -13 -13 -12 -27 8 -8 12 -21 22 -27 22
-6 0 -17 9 -24 21 -7 11 -19 18 -27 15 -8 -3 -17 0 -21 6 -5 7 -2 8 6 3 9 -5
11 -4 6 3 -4 7 -16 12 -26 12 -10 0 -22 10 -25 21 -4 12 -10 17 -14 11 -4 -6
-11 -5 -19 4 -7 8 -9 14 -5 14 4 0 -1 6 -12 14 -24 16 -53 17 -63 2z m14 -11
c-1 -8 -5 -17 -8 -21 -5 -4 -4 16 1 34 3 9 9 -1 7 -13z m39 5 c3 -6 -1 -7 -9
-4 -18 7 -21 14 -7 14 6 0 13 -4 16 -10z m-1 -365 c-4 -8 -11 -15 -16 -15 -6
0 -5 6 2 15 7 8 14 15 16 15 2 0 1 -7 -2 -15z m546 -50 c7 -9 8 -15 2 -15 -5
0 -12 7 -16 15 -3 8 -4 15 -2 15 2 0 9 -7 16 -15z m115 -95 c3 -5 1 -10 -4
-10 -6 0 -11 5 -11 10 0 6 2 10 4 10 3 0 8 -4 11 -10z m380 -371 c11 -16 1
-19 -13 -3 -7 8 -8 14 -3 14 5 0 13 -5 16 -11z m-2451 -1224 c-9 -14 -18 -25
-21 -25 -5 0 5 18 20 38 17 22 18 13 1 -13z m-219 -445 c-3 -5 -11 -10 -16
-10 -6 0 -7 5 -4 10 3 6 11 10 16 10 6 0 7 -4 4 -10z m550 -30 c3 -6 -1 -7 -9
-4 -18 7 -21 14 -7 14 6 0 13 -4 16 -10z m115 -14 c0 -2 -7 -7 -16 -10 -8 -3
-12 -2 -9 4 6 10 25 14 25 6z m-750 -316 c0 -5 -5 -10 -11 -10 -5 0 -7 5 -4
10 3 6 8 10 11 10 2 0 4 -4 4 -10z m40 -356 c0 -8 -19 -13 -24 -6 -3 5 1 9 9
9 8 0 15 -2 15 -3z m315 -924 c10 -11 16 -20 13 -20 -3 0 -13 9 -23 20 -10 11
-16 20 -13 20 3 0 13 -9 23 -20z m1474 -573 c0 -9 -2 -8 -6 1 -2 6 -10 9 -15
6 -7 -4 -8 -2 -4 5 9 13 26 5 25 -12z"/>
<path d="M3030 4211 c0 -6 4 -13 10 -16 6 -3 7 1 4 9 -7 18 -14 21 -14 7z"/>
<path d="M2240 3925 c-8 -9 -8 -15 -2 -15 12 0 26 19 19 26 -2 2 -10 -2 -17
-11z"/>
<path d="M3415 3790 c3 -5 8 -10 11 -10 2 0 4 5 4 10 0 6 -5 10 -11 10 -5 0
-7 -4 -4 -10z"/>
<path d="M1135 3730 c-3 -5 -3 -14 0 -20 3 -6 -1 -7 -9 -4 -9 3 -13 10 -10 15
3 5 -2 6 -10 3 -14 -5 -14 -8 -1 -21 20 -20 19 -29 -2 -12 -14 12 -16 12 -11
-1 2 -8 -3 -21 -12 -30 -9 -8 -10 -11 -3 -6 20 13 10 -34 -10 -49 -17 -12 -24
-31 -9 -21 5 3 9 -1 9 -9 0 -9 -7 -14 -16 -13 -9 2 -15 -3 -13 -9 1 -7 -2 -13
-8 -13 -5 0 -9 -5 -7 -12 1 -7 -4 -13 -10 -14 -27 -3 -28 -5 -13 -14 13 -8 13
-10 -2 -10 -9 0 -20 -5 -24 -12 -5 -7 -2 -9 7 -4 8 4 5 0 -6 -9 -11 -9 -19
-20 -18 -25 2 -5 -5 -6 -14 -3 -10 4 -14 2 -9 -5 3 -6 -3 -13 -14 -17 -11 -3
-20 -11 -20 -16 0 -6 6 -7 13 -3 9 5 9 3 -1 -7 -7 -8 -17 -15 -22 -15 -23 -3
-24 -5 -10 -14 13 -8 13 -10 -1 -10 -24 0 -51 -34 -38 -47 8 -8 7 -13 -2 -18
-8 -5 -10 -4 -5 3 4 7 5 12 2 12 -3 0 -10 -10 -17 -21 -9 -17 -8 -20 3 -13 10
6 11 5 1 -8 -7 -8 -10 -18 -6 -22 4 -4 0 -4 -9 -1 -13 5 -16 0 -14 -24 2 -22
-2 -31 -13 -31 -13 0 -13 -2 -2 -9 8 -5 9 -11 3 -15 -6 -3 -9 -14 -7 -24 1 -9
-2 -25 -7 -34 -5 -11 -5 -18 1 -18 5 0 11 6 14 13 3 6 4 2 4 -9 -1 -12 -6 -20
-13 -17 -8 3 -10 -8 -7 -38 4 -32 2 -40 -7 -34 -9 5 -11 4 -6 -4 4 -6 11 -9
16 -6 4 3 10 -2 14 -10 3 -8 -3 -19 -12 -24 -16 -10 -15 -10 2 -11 16 0 17 -2
5 -16 -16 -20 -21 -46 -6 -37 6 4 8 0 4 -10 -9 -25 17 -21 46 6 13 12 26 30
30 40 4 10 11 16 17 12 5 -3 12 6 16 21 5 19 9 22 15 12 7 -10 9 -9 9 5 0 10
7 20 15 23 8 4 15 11 15 18 0 6 9 17 21 24 17 11 20 11 14 0 -4 -7 4 1 18 17
18 21 22 34 15 42 -7 9 -5 11 10 8 15 -3 19 2 16 22 -2 17 2 23 11 19 14 -5
29 20 19 35 -3 5 3 9 13 10 11 0 13 3 5 6 -8 3 -5 11 10 24 13 10 17 18 11 19
-7 0 -13 -5 -13 -12 0 -6 -3 -8 -7 -5 -3 4 0 15 8 24 28 36 38 60 27 71 -6 6
-6 12 3 17 8 6 10 4 4 -5 -5 -9 -4 -11 4 -6 6 4 8 13 4 19 -10 17 -11 47 -1
41 5 -4 7 -13 4 -21 -3 -8 -2 -11 4 -8 5 3 7 21 4 41 -3 26 -1 33 8 28 9 -6 9
-3 -1 9 -8 10 -10 24 -6 34 5 10 7 24 6 31 -1 8 3 19 9 27 8 9 8 15 0 20 -5 3
-10 31 -10 61 0 39 -3 53 -12 48 -8 -5 -8 -3 -2 7 7 12 14 79 7 79 -1 0 -5 -4
-8 -10z m-271 -405 c-4 -8 -11 -15 -16 -15 -6 0 -5 6 2 15 7 8 14 15 16 15 2
0 1 -7 -2 -15z m136 -250 c-7 -8 -17 -15 -23 -15 -6 0 -2 7 9 15 25 19 30 19
14 0z m-207 -169 c4 -10 1 -13 -8 -9 -8 3 -12 9 -9 14 7 12 11 11 17 -5z"/>
<path d="M3580 3346 c0 -2 7 -7 16 -10 8 -3 12 -2 9 4 -6 10 -25 14 -25 6z"/>
<path d="M3588 3093 c7 -3 16 -2 19 1 4 3 -2 6 -13 5 -11 0 -14 -3 -6 -6z"/>
<path d="M1015 2610 c-3 -5 -1 -10 4 -10 6 0 11 5 11 10 0 6 -2 10 -4 10 -3 0
-8 -4 -11 -10z"/>
<path d="M3565 2611 c-3 -5 -2 -12 3 -15 5 -3 9 1 9 9 0 17 -3 19 -12 6z"/>
<path d="M1485 2339 c-4 -6 -5 -12 -2 -15 2 -3 7 2 10 11 7 17 1 20 -8 4z"/>
<path d="M4190 2256 c0 -2 7 -9 15 -16 13 -11 14 -10 9 4 -5 14 -24 23 -24 12z"/>
<path d="M745 1170 c-3 -5 -1 -10 4 -10 6 0 11 5 11 10 0 6 -2 10 -4 10 -3 0
-8 -4 -11 -10z"/>
<path d="M985 691 c-3 -5 -2 -12 3 -15 5 -3 9 1 9 9 0 17 -3 19 -12 6z"/>
<path d="M1216 347 c3 -10 9 -15 12 -12 3 3 0 11 -7 18 -10 9 -11 8 -5 -6z"/>
<path d="M3375 290 c-3 -5 -1 -10 4 -10 6 0 11 5 11 10 0 6 -2 10 -4 10 -3 0
-8 -4 -11 -10z"/>
<path d="M2889 103 c-12 -16 -12 -17 2 -6 9 7 20 9 24 5 5 -4 5 -1 1 6 -9 16
-11 15 -27 -5z"/>
<path d="M2056 17 c-16 -12 -16 -14 -3 -14 9 0 18 6 21 14 7 16 4 16 -18 0z"/>
</g>
</svg>
